<svg xmlns="http://www.w3.org/2000/svg" xmlns:xlink="http://www.w3.org/1999/xlink" width="720" zoomAndPan="magnify" viewBox="0 0 540 359.999987" height="480" preserveAspectRatio="xMidYMid meet" version="1.0"><defs><g/></defs><g fill="#ffffff" fill-opacity="1"><g transform="translate(6.658132, 260.706816)"><g><path d="M 32.953125 7.9375 C 31.703125 7.9375 30.34375 7.640625 28.875 7.046875 C 25.789062 5.503906 23.660156 3.335938 22.484375 0.546875 C 20.648438 -3.710938 19.734375 -11.054688 19.734375 -21.484375 L 19.84375 -26.34375 C 20.425781 -38.238281 21.929688 -50.03125 24.359375 -61.71875 C 29.054688 -84.488281 34.894531 -107.003906 41.875 -129.265625 C 49.226562 -153.734375 54.59375 -173.5 57.96875 -188.5625 C 58.257812 -189.300781 58.550781 -190.550781 58.84375 -192.3125 L 58.84375 -192.859375 L 58.96875 -193.296875 L 58.84375 -193.296875 L 59.078125 -192.75 L 60.828125 -190.765625 L 60.71875 -190.765625 L 63.375 -189.109375 L 63.703125 -189 C 62.378906 -189.289062 61.109375 -189.953125 59.890625 -190.984375 C 58.679688 -192.015625 57.820312 -193.15625 57.3125 -194.40625 C 57.09375 -194.914062 56.984375 -195.359375 56.984375 -195.734375 C 56.984375 -196.316406 57.164062 -196.8125 57.53125 -197.21875 C 57.894531 -197.625 58.445312 -197.828125 59.1875 -197.828125 C 61.3125 -197.828125 63.289062 -196.976562 65.125 -195.28125 C 67.476562 -193.15625 68.65625 -190.550781 68.65625 -187.46875 C 68.65625 -186.070312 68.4375 -184.632812 68 -183.15625 L 67.890625 -182.390625 C 63.847656 -165.566406 58.738281 -146.867188 52.5625 -126.296875 L 52.234375 -124.96875 C 39.160156 -82.945312 31.703125 -49.445312 29.859375 -24.46875 C 29.710938 -21.75 29.640625 -19.066406 29.640625 -16.421875 C 29.640625 -11.128906 29.9375 -6.171875 30.53125 -1.546875 C 30.820312 -0.367188 30.96875 0.585938 30.96875 1.328125 C 31.113281 1.617188 31.1875 1.835938 31.1875 1.984375 C 31.1875 2.054688 31.148438 2.09375 31.078125 2.09375 C 30.929688 2.09375 30.34375 1.539062 29.3125 0.4375 C 28.582031 0 27.957031 -0.472656 27.4375 -0.984375 C 27.65625 -1.210938 28.023438 -1.328125 28.546875 -1.328125 C 28.910156 -1.472656 29.164062 -1.546875 29.3125 -1.546875 L 32.515625 -3.421875 C 55.359375 -16.492188 79.929688 -23.03125 106.234375 -23.03125 C 121.585938 -23.03125 136.6875 -20.679688 151.53125 -15.984375 C 154.46875 -15.097656 156.597656 -13.257812 157.921875 -10.46875 C 158.066406 -10.03125 158.140625 -9.625 158.140625 -9.25 C 158.140625 -8.738281 157.972656 -8.242188 157.640625 -7.765625 C 157.316406 -7.285156 156.785156 -7.046875 156.046875 -7.046875 L 155.0625 -7.15625 C 140.8125 -11.71875 126.410156 -14 111.859375 -14 C 103.773438 -14 95.617188 -13.300781 87.390625 -11.90625 C 77.253906 -10.21875 67.445312 -7.425781 57.96875 -3.53125 C 50.914062 -0.59375 45.476562 2.085938 41.65625 4.515625 C 38.0625 6.796875 35.160156 7.9375 32.953125 7.9375 Z M 15.3125 -174.78125 C 14.21875 -174.78125 12.894531 -175.3125 11.34375 -176.375 C 9.800781 -177.445312 8.628906 -178.753906 7.828125 -180.296875 C 7.535156 -180.878906 7.390625 -181.394531 7.390625 -181.84375 C 7.390625 -182.570312 7.789062 -183.125 8.59375 -183.5 C 34.238281 -192.894531 60.691406 -197.59375 87.953125 -197.59375 C 104.703125 -197.59375 121.488281 -195.757812 138.3125 -192.09375 C 139.632812 -191.800781 140.898438 -191.15625 142.109375 -190.15625 C 143.328125 -189.164062 144.191406 -188.007812 144.703125 -186.6875 C 144.921875 -186.25 145.03125 -185.8125 145.03125 -185.375 C 145.03125 -184.851562 144.847656 -184.375 144.484375 -183.9375 C 144.117188 -183.5 143.53125 -183.28125 142.71875 -183.28125 L 141.84375 -183.390625 C 126.476562 -186.835938 110.457031 -188.5625 93.78125 -188.5625 C 67.332031 -188.5625 41.507812 -184.003906 16.3125 -174.890625 Z M 23.921875 -94 C 22.890625 -94 21.859375 -94.296875 20.828125 -94.890625 C 18.992188 -95.847656 17.632812 -97.242188 16.75 -99.078125 C 16.3125 -99.804688 16.09375 -100.578125 16.09375 -101.390625 C 16.09375 -101.972656 16.457031 -102.453125 17.1875 -102.828125 C 34.238281 -109.804688 51.65625 -113.296875 69.4375 -113.296875 C 77.363281 -113.296875 85.40625 -112.597656 93.5625 -111.203125 C 94.957031 -110.898438 96.242188 -110.238281 97.421875 -109.21875 C 99.328125 -107.445312 100.28125 -105.828125 100.28125 -104.359375 C 100.28125 -103.847656 100.097656 -103.367188 99.734375 -102.921875 C 99.367188 -102.484375 98.816406 -102.265625 98.078125 -102.265625 L 97.203125 -102.375 C 89.640625 -103.695312 82.144531 -104.359375 74.71875 -104.359375 C 57.75 -104.359375 41.144531 -100.941406 24.90625 -94.109375 L 17.1875 -102.828125 L 19.734375 -103.375 L 20.71875 -103.484375 C 21.675781 -103.484375 22.707031 -103.191406 23.8125 -102.609375 C 25.570312 -101.578125 26.929688 -100.21875 27.890625 -98.53125 C 28.328125 -97.71875 28.546875 -96.832031 28.546875 -95.875 C 28.546875 -95.289062 28.140625 -94.90625 27.328125 -94.71875 C 26.523438 -94.539062 25.71875 -94.335938 24.90625 -94.109375 Z M 23.921875 -94 "/></g></g><g transform="translate(155.110674, 260.706816)"><g><path d="M 32.84375 -57.859375 C 29.6875 -57.859375 26.453125 -58.738281 23.140625 -60.5 C 19.835938 -62.257812 16.972656 -64.722656 14.546875 -67.890625 C 9.992188 -73.984375 6.800781 -80.742188 4.96875 -88.171875 C 2.976562 -95.148438 1.984375 -102.128906 1.984375 -109.109375 C 1.984375 -116.742188 3.160156 -124.347656 5.515625 -131.921875 C 5.953125 -132.867188 6.648438 -133.34375 7.609375 -133.34375 C 9.515625 -133.34375 11.535156 -132.242188 13.671875 -130.046875 C 14.847656 -128.796875 15.4375 -127.582031 15.4375 -126.40625 L 15.328125 -125.75 C 13.046875 -118.625 11.90625 -111.382812 11.90625 -104.03125 C 11.90625 -92.5 14.40625 -82.066406 19.40625 -72.734375 C 20.5 -70.609375 21.707031 -69.03125 23.03125 -68 C 24.425781 -67.1875 25.9375 -66.78125 27.5625 -66.78125 C 28.21875 -66.78125 28.878906 -66.851562 29.546875 -67 L 29.765625 -67 C 31.015625 -67 32.425781 -66.335938 34 -65.015625 C 35.582031 -63.691406 36.628906 -62.296875 37.140625 -60.828125 C 37.285156 -60.460938 37.359375 -60.132812 37.359375 -59.84375 C 37.359375 -58.882812 36.660156 -58.257812 35.265625 -57.96875 Z M -6.5 -59.625 C -8.332031 -59.625 -10.351562 -60.722656 -12.5625 -62.921875 C -13.738281 -64.171875 -14.328125 -65.382812 -14.328125 -66.5625 L -14.21875 -67.21875 C -10.976562 -77.21875 -6.09375 -86.203125 0.4375 -94.171875 C 6.976562 -102.140625 14.734375 -108.84375 23.703125 -114.28125 C 24.066406 -114.5 24.503906 -114.609375 25.015625 -114.609375 C 26.046875 -114.609375 27.296875 -114.0625 28.765625 -112.96875 C 30.523438 -111.570312 31.703125 -110.023438 32.296875 -108.328125 L 32.40625 -107.453125 C 32.40625 -106.785156 32.070312 -106.195312 31.40625 -105.6875 C 14.144531 -95.03125 2.207031 -80.148438 -4.40625 -61.046875 C -4.84375 -60.097656 -5.539062 -59.625 -6.5 -59.625 Z M -6.5 -59.625 "/></g></g><g transform="translate(200.627304, 260.706816)"><g><path d="M -3.53125 38.796875 C -5.070312 38.796875 -6.6875 38.097656 -8.375 36.703125 C -9.625 35.742188 -10.46875 34.601562 -10.90625 33.28125 C -15.46875 18.507812 -17.75 3.335938 -17.75 -12.234375 C -17.75 -33.316406 -14.695312 -54 -8.59375 -74.28125 C -4.769531 -87.28125 0.148438 -100.945312 6.171875 -115.28125 C 6.390625 -115.863281 6.644531 -116.578125 6.9375 -117.421875 C 7.226562 -118.265625 7.597656 -119.164062 8.046875 -120.125 C 8.992188 -122.40625 10.316406 -123.546875 12.015625 -123.546875 C 13.410156 -123.546875 14.953125 -122.882812 16.640625 -121.5625 C 17.742188 -120.601562 18.609375 -119.644531 19.234375 -118.6875 C 19.859375 -117.738281 20.171875 -116.710938 20.171875 -115.609375 C 20.171875 -114.066406 19.359375 -113.296875 17.734375 -113.296875 C 16.335938 -113.367188 15.015625 -113.828125 13.765625 -114.671875 C 12.523438 -115.515625 11.535156 -116.523438 10.796875 -117.703125 C 10.210938 -118.503906 9.921875 -119.421875 9.921875 -120.453125 C 9.921875 -121.703125 10.582031 -122.328125 11.90625 -122.328125 L 12.125 -122.328125 L 10.578125 -121.5625 L 10.359375 -120.671875 L 11.234375 -118.46875 L 11.015625 -118.796875 L 15.640625 -114.828125 L 15.3125 -114.953125 C 15.90625 -114.953125 16.457031 -114.910156 16.96875 -114.828125 C 17.476562 -114.753906 18.03125 -114.679688 18.625 -114.609375 C 18.113281 -114.460938 17.632812 -113.617188 17.1875 -112.078125 L 16.96875 -111.421875 L 15.3125 -107.671875 C 11.195312 -97.460938 8.148438 -89.488281 6.171875 -83.75 C -0.660156 -64.65625 -5.109375 -44.96875 -7.171875 -24.6875 C -7.753906 -19.25 -8.046875 -13.8125 -8.046875 -8.375 C -8.046875 6.394531 -5.914062 20.976562 -1.65625 35.375 C -1.507812 35.8125 -1.4375 36.253906 -1.4375 36.703125 C -1.4375 38.097656 -2.132812 38.796875 -3.53125 38.796875 Z M 13.671875 -53.234375 C 9.703125 -53.234375 6.023438 -54.921875 2.640625 -58.296875 C -0.804688 -62.335938 -2.53125 -66.671875 -2.53125 -71.296875 C -2.53125 -72.765625 -2.109375 -75.460938 -1.265625 -79.390625 C -0.421875 -83.328125 2.054688 -87.722656 6.171875 -92.578125 C 6.753906 -93.160156 7.414062 -93.453125 8.15625 -93.453125 C 8.8125 -93.453125 9.78125 -93.117188 11.0625 -92.453125 C 12.351562 -91.796875 13.585938 -90.660156 14.765625 -89.046875 C 15.429688 -88.160156 15.765625 -87.316406 15.765625 -86.515625 C 15.765625 -85.921875 15.613281 -85.367188 15.3125 -84.859375 C 11.34375 -80.453125 8.773438 -75.382812 7.609375 -69.65625 C 7.378906 -68.625 7.265625 -67.59375 7.265625 -66.5625 C 7.265625 -65.164062 7.453125 -63.804688 7.828125 -62.484375 C 7.898438 -62.484375 7.9375 -62.445312 7.9375 -62.375 C 7.9375 -62.300781 7.972656 -62.207031 8.046875 -62.09375 C 8.117188 -61.988281 8.191406 -61.898438 8.265625 -61.828125 C 8.335938 -61.304688 8.410156 -61.046875 8.484375 -61.046875 C 8.484375 -61.128906 8.445312 -61.222656 8.375 -61.328125 C 8.300781 -61.441406 8.226562 -61.535156 8.15625 -61.609375 C 8.082031 -61.679688 7.972656 -61.753906 7.828125 -61.828125 L 7.046875 -62.15625 L 8.265625 -62.046875 C 10.617188 -62.046875 12.96875 -62.960938 15.3125 -64.796875 C 17.226562 -66.265625 18.992188 -67.8125 20.609375 -69.4375 C 27.660156 -76.488281 32.472656 -84.828125 35.046875 -94.453125 C 36.078125 -97.828125 36.59375 -101.28125 36.59375 -104.8125 C 36.59375 -106.789062 36.367188 -108.585938 35.921875 -110.203125 C 35.703125 -110.421875 35.59375 -110.679688 35.59375 -110.984375 L 35.59375 -110.75 L 35.375 -111.3125 L 35.8125 -110.75 C 36.257812 -110.53125 36.484375 -110.347656 36.484375 -110.203125 L 36.140625 -110.203125 C 34.742188 -110.203125 33.460938 -109.945312 32.296875 -109.4375 C 27.804688 -107.445312 23.800781 -104.726562 20.28125 -101.28125 C 13 -94.664062 7.632812 -86.804688 4.1875 -77.703125 C 3.75 -76.742188 3.015625 -76.265625 1.984375 -76.265625 C 0.0664062 -76.265625 -1.953125 -77.363281 -4.078125 -79.5625 C -5.179688 -80.8125 -5.734375 -81.953125 -5.734375 -82.984375 L -5.625 -83.875 C -0.695312 -96.945312 7.566406 -107.378906 19.171875 -115.171875 C 22.109375 -117.148438 25.195312 -118.394531 28.4375 -118.90625 L 30.421875 -119.015625 C 32.910156 -119.015625 35.441406 -118.242188 38.015625 -116.703125 C 43.523438 -112.816406 46.351562 -107.492188 46.5 -100.734375 C 46.132812 -88.390625 42.171875 -77.296875 34.609375 -67.453125 C 31.078125 -62.597656 26.773438 -58.59375 21.703125 -55.4375 C 18.910156 -53.96875 16.234375 -53.234375 13.671875 -53.234375 Z M 13.671875 -53.234375 "/></g></g><g transform="translate(257.164909, 260.706816)"><g><path d="M 23.484375 -37.46875 C 22.304688 -37.46875 21.09375 -37.578125 19.84375 -37.796875 C 15.582031 -38.679688 11.890625 -40.59375 8.765625 -43.53125 C 5.640625 -46.46875 3.160156 -49.847656 1.328125 -53.671875 C -1.679688 -60.066406 -3.1875 -67.925781 -3.1875 -77.25 C -3.1875 -86.945312 -2.234375 -96.976562 -0.328125 -107.34375 C 5.992188 -144.375 18.15625 -179.421875 36.15625 -212.484375 C 36.519531 -212.992188 37.035156 -213.25 37.703125 -213.25 C 38.578125 -213.25 39.601562 -212.921875 40.78125 -212.265625 C 42.539062 -211.234375 43.9375 -209.875 44.96875 -208.1875 C 45.332031 -207.59375 45.515625 -206.96875 45.515625 -206.3125 C 45.515625 -205.789062 45.40625 -205.273438 45.1875 -204.765625 C 27.707031 -172.660156 15.84375 -138.238281 9.59375 -101.5 C 7.90625 -92.613281 6.914062 -83.648438 6.625 -74.609375 L 6.625 -73.171875 C 6.625 -69.867188 6.84375 -66.414062 7.28125 -62.8125 C 7.71875 -59.21875 8.707031 -55.65625 10.25 -52.125 C 10.769531 -50.945312 11.46875 -49.8125 12.34375 -48.71875 L 13.34375 -47.609375 C 13.195312 -47.753906 13.125 -47.863281 13.125 -47.9375 L 13.234375 -47.9375 L 13.34375 -47.828125 C 13.414062 -47.753906 13.523438 -47.679688 13.671875 -47.609375 C 13.816406 -47.535156 13.890625 -47.460938 13.890625 -47.390625 L 13.5625 -47.5 C 14 -47.351562 14.253906 -47.257812 14.328125 -47.21875 C 14.398438 -47.1875 14.4375 -47.097656 14.4375 -46.953125 L 14.21875 -47.171875 L 14.65625 -46.953125 L 15.546875 -46.734375 C 16.054688 -46.503906 16.863281 -46.390625 17.96875 -46.390625 C 19.21875 -46.390625 20.46875 -46.578125 21.71875 -46.953125 C 27.519531 -48.859375 33.101562 -52.859375 38.46875 -58.953125 C 43.164062 -64.097656 47.242188 -69.6875 50.703125 -75.71875 C 54.003906 -80.925781 56.28125 -86.507812 57.53125 -92.46875 C 57.820312 -93.414062 58.410156 -93.890625 59.296875 -93.890625 C 59.660156 -93.890625 60.394531 -93.722656 61.5 -93.390625 C 62.601562 -93.066406 63.867188 -92.1875 65.296875 -90.75 C 66.734375 -89.320312 67.453125 -87.910156 67.453125 -86.515625 L 67.453125 -86.296875 C 65.691406 -78.722656 62.609375 -71.707031 58.203125 -65.25 C 53.859375 -58.1875 48.675781 -51.898438 42.65625 -46.390625 C 39.5 -43.523438 36.007812 -41.210938 32.1875 -39.453125 C 29.394531 -38.128906 26.492188 -37.46875 23.484375 -37.46875 Z M 23.484375 -37.46875 "/></g></g><g transform="translate(318.772163, 260.706816)"><g><path d="M 1.53125 -45.40625 C 0.207031 -45.40625 -1.148438 -45.660156 -2.546875 -46.171875 C -7.679688 -48.597656 -10.320312 -52.601562 -10.46875 -58.1875 C -10.175781 -62.375 -9.40625 -66.488281 -8.15625 -70.53125 C -4.78125 -83.53125 0.984375 -95.320312 9.140625 -105.90625 C 9.648438 -106.425781 10.273438 -106.6875 11.015625 -106.6875 C 11.671875 -106.6875 12.625 -106.375 13.875 -105.75 C 15.125 -105.125 16.335938 -104.035156 17.515625 -102.484375 C 18.253906 -101.460938 18.625 -100.546875 18.625 -99.734375 C 18.625 -99.222656 18.472656 -98.707031 18.171875 -98.1875 C 8.328125 -85.332031 2.15625 -70.898438 -0.34375 -54.890625 L -0.34375 -54.546875 C -0.488281 -53.890625 -0.5625 -53.226562 -0.5625 -52.5625 C -0.5625 -52.34375 -0.539062 -52.125 -0.5 -51.90625 C -0.46875 -51.6875 -0.414062 -51.503906 -0.34375 -51.359375 L -0.453125 -51.140625 L -0.453125 -51.25 C -0.453125 -51.613281 -1.070312 -52.085938 -2.3125 -52.671875 C -3.5625 -53.265625 -4.222656 -53.707031 -4.296875 -54 C -4.296875 -54.070312 -4.238281 -54.125 -4.125 -54.15625 C -4.019531 -54.195312 -3.859375 -54.253906 -3.640625 -54.328125 C -3.421875 -54.398438 -3.273438 -54.4375 -3.203125 -54.4375 C -2.535156 -54.65625 -1.945312 -54.953125 -1.4375 -55.328125 C 0.914062 -57.234375 2.9375 -59.472656 4.625 -62.046875 C 4.914062 -62.335938 5.171875 -62.664062 5.390625 -63.03125 C 13.765625 -73.90625 19.238281 -86.25 21.8125 -100.0625 L 21.921875 -100.171875 C 22.515625 -102.742188 22.8125 -105.351562 22.8125 -108 C 22.8125 -109.914062 22.585938 -111.457031 22.140625 -112.625 L 21.921875 -113.40625 L 22.140625 -113.078125 C 22.441406 -112.554688 22.664062 -112.296875 22.8125 -112.296875 L 21.265625 -112.296875 C 20.753906 -112.222656 20.3125 -112.1875 19.9375 -112.1875 C 19.570312 -112.1875 19.316406 -112.148438 19.171875 -112.078125 C 14.984375 -110.898438 10.90625 -108.289062 6.9375 -104.25 C 4.507812 -101.90625 2.523438 -99.222656 0.984375 -96.203125 C 0.546875 -95.328125 0.328125 -94.46875 0.328125 -93.625 C 0.328125 -92.78125 0.328125 -92.316406 0.328125 -92.234375 C 0.328125 -92.160156 0.328125 -92.085938 0.328125 -92.015625 L 0.4375 -91.90625 L 0.546875 -91.90625 C 0.546875 -92.050781 0.398438 -92.203125 0.109375 -92.359375 L -0.34375 -92.578125 L 0.4375 -92.25 C 3.082031 -91.507812 5.835938 -91.140625 8.703125 -91.140625 L 15.640625 -91.140625 C 25.117188 -91.140625 36.101562 -91.800781 48.59375 -93.125 L 48.921875 -93.125 C 50.097656 -93.125 51.3125 -92.664062 52.5625 -91.75 C 53.8125 -90.832031 54.75 -89.875 55.375 -88.875 C 56 -87.882812 56.3125 -86.988281 56.3125 -86.1875 L 56.3125 -85.1875 C 56.3125 -84.675781 55.6875 -84.3125 54.4375 -84.09375 C 42.90625 -82.84375 31.367188 -82.179688 19.828125 -82.109375 L 16.296875 -82.109375 C 7.335938 -82.109375 0.546875 -84.015625 -4.078125 -87.828125 C -7.753906 -90.921875 -9.59375 -94.410156 -9.59375 -98.296875 C -9.59375 -101.171875 -8.414062 -104.238281 -6.0625 -107.5 C -3.71875 -110.769531 -0.925781 -113.546875 2.3125 -115.828125 C 5.6875 -118.546875 9.503906 -120.347656 13.765625 -121.234375 L 15.859375 -121.34375 C 19.972656 -121.34375 23.644531 -119.832031 26.875 -116.8125 C 30.113281 -113.800781 31.953125 -110.273438 32.390625 -106.234375 C 32.535156 -104.910156 32.609375 -103.550781 32.609375 -102.15625 C 32.609375 -99.4375 32.316406 -96.679688 31.734375 -93.890625 C 30.117188 -85.585938 27.398438 -77.617188 23.578125 -69.984375 C 19.898438 -62.191406 15.085938 -55.210938 9.140625 -49.046875 C 6.859375 -46.617188 4.320312 -45.40625 1.53125 -45.40625 Z M 1.53125 -45.40625 "/></g></g><g transform="translate(369.248231, 260.706816)"><g><path d="M 5.625 -43.09375 C 4.519531 -43.09375 3.304688 -43.492188 1.984375 -44.296875 C -2.128906 -46.796875 -4.1875 -50.328125 -4.1875 -54.890625 C -4.1875 -56.285156 -4.039062 -57.679688 -3.75 -59.078125 L 2.96875 -119.015625 C 8.257812 -113.878906 10.90625 -111.273438 10.90625 -111.203125 L 10.796875 -110.875 C 10.503906 -109.914062 9.914062 -109.4375 9.03125 -109.4375 C 8.664062 -109.4375 7.929688 -109.597656 6.828125 -109.921875 C 5.734375 -110.253906 4.484375 -111.132812 3.078125 -112.5625 C 1.679688 -114 0.984375 -115.378906 0.984375 -116.703125 L 0.984375 -117.046875 C 1.503906 -119.097656 2.828125 -120.234375 4.953125 -120.453125 L 5.1875 -120.453125 C 6.945312 -120.453125 8.648438 -119.644531 10.296875 -118.03125 C 11.953125 -116.414062 12.78125 -114.765625 12.78125 -113.078125 C 12.78125 -112.335938 12.15625 -106.601562 10.90625 -95.875 L 7.046875 -62.15625 L 5.734375 -49.921875 L 5.734375 -48.828125 C 5.734375 -48.160156 5.84375 -47.828125 6.0625 -47.828125 C 6.207031 -47.828125 6.28125 -47.898438 6.28125 -48.046875 L 6.171875 -48.484375 C 6.023438 -49.003906 5.109375 -49.816406 3.421875 -50.921875 L -1.875 -51.46875 C -0.625 -53.300781 0.289062 -55.320312 0.875 -57.53125 C 0.875 -57.675781 0.910156 -57.785156 0.984375 -57.859375 C 1.941406 -60.867188 2.828125 -63.878906 3.640625 -66.890625 C 6.648438 -77.984375 10.320312 -88.859375 14.65625 -99.515625 C 19.4375 -111.203125 26.160156 -121.597656 34.828125 -130.703125 C 35.410156 -131.210938 36.070312 -131.46875 36.8125 -131.46875 C 37.394531 -131.46875 38.273438 -131.210938 39.453125 -130.703125 C 40.628906 -130.191406 41.769531 -129.203125 42.875 -127.734375 C 43.820312 -126.554688 44.296875 -125.414062 44.296875 -124.3125 L 44.296875 -123.765625 C 41.648438 -114.867188 39.628906 -105.832031 38.234375 -96.65625 L 38.234375 -96.546875 C 37.503906 -92.203125 37.140625 -88.453125 37.140625 -85.296875 C 37.140625 -83.390625 37.285156 -82.101562 37.578125 -81.4375 L 37.6875 -80.890625 C 37.6875 -80.960938 37.6875 -81.015625 37.6875 -81.046875 C 37.6875 -81.085938 37.613281 -81.144531 37.46875 -81.21875 L 37.6875 -81 C 37.320312 -81.289062 36.992188 -81.625 36.703125 -82 C 36.109375 -82.65625 35.484375 -83.164062 34.828125 -83.53125 C 36.003906 -83.019531 37.140625 -82.210938 38.234375 -81.109375 C 39.335938 -80.003906 40.035156 -78.753906 40.328125 -77.359375 C 40.328125 -75.816406 39.554688 -75.046875 38.015625 -75.046875 C 37.285156 -75.046875 36.585938 -75.191406 35.921875 -75.484375 C 31.441406 -77.617188 28.800781 -80.816406 28 -85.078125 C 27.476562 -87.359375 27.21875 -89.671875 27.21875 -92.015625 C 27.21875 -94.003906 27.398438 -95.988281 27.765625 -97.96875 C 29.085938 -108.84375 31.332031 -119.5 34.5 -129.9375 L 43.859375 -122.984375 C 38.710938 -117.703125 34.269531 -111.898438 30.53125 -105.578125 C 25.601562 -96.609375 21.632812 -87.203125 18.625 -77.359375 L 16.640625 -71.75 C 15.535156 -68.4375 14.546875 -65.054688 13.671875 -61.609375 L 12.015625 -55.765625 C 11.128906 -51.429688 9.507812 -47.425781 7.15625 -43.75 C 6.789062 -43.3125 6.28125 -43.09375 5.625 -43.09375 Z M 5.625 -43.09375 "/></g></g><g transform="translate(422.920383, 260.706816)"><g><path d="M 14.21875 -41.4375 C 7.019531 -41.4375 0.773438 -44.335938 -4.515625 -50.140625 C -8.628906 -55.210938 -10.6875 -61.679688 -10.6875 -69.546875 L -10.578125 -72.625 C -9.835938 -81.664062 -7.597656 -90.375 -3.859375 -98.75 C 0.109375 -108.375 4.921875 -115.390625 10.578125 -119.796875 C 12.347656 -121.191406 14.257812 -122.21875 16.3125 -122.875 C 17.269531 -123.175781 18.226562 -123.328125 19.1875 -123.328125 C 20.351562 -123.328125 21.5625 -123.101562 22.8125 -122.65625 C 25.238281 -121.707031 27.273438 -120.222656 28.921875 -118.203125 C 30.578125 -116.179688 31.40625 -113.8125 31.40625 -111.09375 C 30.96875 -107.488281 29.535156 -104.289062 27.109375 -101.5 C 24.535156 -97.894531 21.671875 -94.585938 18.515625 -91.578125 C 13.453125 -86.804688 7.46875 -83.832031 0.5625 -82.65625 L 0.328125 -82.65625 C -0.910156 -82.65625 -2.320312 -83.316406 -3.90625 -84.640625 C -5.488281 -85.960938 -6.535156 -87.359375 -7.046875 -88.828125 C -7.191406 -89.191406 -7.265625 -89.519531 -7.265625 -89.8125 C -7.265625 -90.769531 -6.566406 -91.394531 -5.171875 -91.6875 C 1.066406 -93.007812 6.390625 -95.988281 10.796875 -100.625 C 13.742188 -103.5625 16.390625 -106.753906 18.734375 -110.203125 C 20.128906 -111.972656 21.015625 -113.8125 21.390625 -115.71875 L 21.5 -116.8125 C 21.570312 -116.8125 21.609375 -116.847656 21.609375 -116.921875 L 21.5 -117.15625 L 21.5 -117.375 L 22.15625 -116.15625 L 25.015625 -114.390625 C 24.722656 -114.390625 24.429688 -114.367188 24.140625 -114.328125 C 23.847656 -114.296875 23.550781 -114.207031 23.25 -114.0625 C 22.375 -113.769531 21.53125 -113.367188 20.71875 -112.859375 C 16.894531 -110.359375 13.476562 -106.535156 10.46875 -101.390625 C 6.5 -94.703125 3.5625 -87.613281 1.65625 -80.125 C 0.0390625 -74.90625 -0.765625 -69.648438 -0.765625 -64.359375 C -0.765625 -62.890625 -0.691406 -61.382812 -0.546875 -59.84375 C -0.253906 -56.976562 0.550781 -54.515625 1.875 -52.453125 L 1.765625 -52.5625 L 1.875 -52.5625 C 1.945312 -52.488281 2.019531 -52.394531 2.09375 -52.28125 C 2.164062 -52.175781 2.238281 -52.085938 2.3125 -52.015625 C 2.382812 -51.941406 2.421875 -51.867188 2.421875 -51.796875 L 2.203125 -52.015625 C 2.421875 -51.867188 2.550781 -51.757812 2.59375 -51.6875 C 2.632812 -51.613281 2.691406 -51.578125 2.765625 -51.578125 L 3.09375 -51.359375 L 2.875 -51.46875 C 4.488281 -50.726562 6.359375 -50.359375 8.484375 -50.359375 C 17.453125 -50.359375 27.1875 -55.503906 37.6875 -65.796875 C 47.539062 -75.128906 54.597656 -84.019531 58.859375 -92.46875 C 59.441406 -93.414062 60.210938 -93.890625 61.171875 -93.890625 C 62.117188 -93.890625 63.21875 -93.488281 64.46875 -92.6875 C 66.53125 -91.507812 67.890625 -89.925781 68.546875 -87.9375 C 68.773438 -87.5 68.890625 -87.097656 68.890625 -86.734375 L 68.765625 -86.296875 C 65.390625 -79.679688 61.238281 -73.617188 56.3125 -68.109375 C 50.957031 -61.859375 45.046875 -56.203125 38.578125 -51.140625 C 32.992188 -46.648438 26.75 -43.597656 19.84375 -41.984375 C 17.925781 -41.617188 16.050781 -41.4375 14.21875 -41.4375 Z M 14.21875 -41.4375 "/></g></g></g><g fill="#ffffff" fill-opacity="1"><g transform="translate(352.890139, 299.649151)"><g><path d="M 15.65625 -20.9375 C 14.019531 -20.9375 12.515625 -21.671875 11.140625 -23.140625 C 9.972656 -24.648438 9.390625 -26.375 9.390625 -28.3125 L 9.390625 -28.921875 C 9.390625 -37.753906 11.378906 -46.125 15.359375 -54.03125 L 19.484375 -50.515625 C 16.566406 -44.984375 13.164062 -39.757812 9.28125 -34.84375 C 8.414062 -33.707031 7.515625 -32.601562 6.578125 -31.53125 C 5.835938 -30.488281 4.984375 -29.550781 4.015625 -28.71875 C 3.242188 -28.050781 2.375 -27.71875 1.40625 -27.71875 C 0.195312 -27.71875 -0.90625 -28.21875 -1.90625 -29.21875 C -2.613281 -29.882812 -3.082031 -30.65625 -3.3125 -31.53125 C -3.382812 -31.96875 -3.421875 -32.421875 -3.421875 -32.890625 C -3.421875 -33.523438 -3.351562 -34.160156 -3.21875 -34.796875 L -3.171875 -35.25 C -2.460938 -39.09375 -1.421875 -42.4375 -0.046875 -45.28125 C 1.554688 -48.53125 3.578125 -51.175781 6.015625 -53.21875 C 7.253906 -54.257812 8.78125 -54.78125 10.59375 -54.78125 C 11.894531 -54.78125 13.164062 -54.492188 14.40625 -53.921875 C 15.445312 -53.453125 16.367188 -52.765625 17.171875 -51.859375 C 17.867188 -51.097656 18.21875 -50.226562 18.21875 -49.25 L 18.171875 -48.75 C 18.109375 -48.3125 17.84375 -48.09375 17.375 -48.09375 C 17.101562 -48.09375 16.789062 -48.148438 16.4375 -48.265625 C 16.082031 -48.390625 15.804688 -48.519531 15.609375 -48.65625 C 15.140625 -48.914062 14.703125 -49.296875 14.296875 -49.796875 C 13.898438 -50.304688 13.703125 -50.8125 13.703125 -51.3125 L 13.703125 -51.671875 L 13.75 -51.515625 C 13.914062 -51.148438 14.164062 -50.832031 14.5 -50.5625 C 14.738281 -50.457031 14.859375 -50.390625 14.859375 -50.359375 L 14.859375 -50.40625 C 14.859375 -50.40625 14.789062 -50.421875 14.65625 -50.453125 L 14.5 -50.515625 L 14.40625 -50.5625 L 14.5 -50.515625 L 14.359375 -50.5625 C 13.992188 -50.664062 13.625 -50.71875 13.25 -50.71875 C 11.675781 -50.71875 10.269531 -50.046875 9.03125 -48.703125 C 6.050781 -45.828125 3.894531 -42.210938 2.5625 -37.859375 C 2.15625 -36.453125 1.816406 -35.046875 1.546875 -33.640625 C 1.316406 -32.398438 1.203125 -31.628906 1.203125 -31.328125 L 1.046875 -30.171875 L 1.109375 -29.875 L 1.046875 -30.125 C 0.679688 -30.488281 0.378906 -30.84375 0.140625 -31.1875 L -1.15625 -31.78125 L -1.0625 -31.78125 C -0.625 -31.78125 -0.00390625 -32.234375 0.796875 -33.140625 C 1.097656 -33.441406 1.921875 -34.378906 3.265625 -35.953125 C 7.910156 -41.503906 11.941406 -47.53125 15.359375 -54.03125 C 15.523438 -54.257812 15.757812 -54.375 16.0625 -54.375 C 16.394531 -54.375 16.863281 -54.222656 17.46875 -53.921875 C 18.300781 -53.453125 18.953125 -52.832031 19.421875 -52.0625 C 19.554688 -51.800781 19.625 -51.535156 19.625 -51.265625 C 19.625 -50.992188 19.578125 -50.742188 19.484375 -50.515625 C 17.566406 -46.691406 16.125 -42.691406 15.15625 -38.515625 C 14.289062 -34.734375 13.859375 -30.816406 13.859375 -26.765625 C 13.859375 -25.890625 13.925781 -25.148438 14.0625 -24.546875 L 14.109375 -24.203125 L 14.0625 -24.203125 C 13.957031 -24.203125 13.84375 -24.351562 13.71875 -24.65625 C 13.601562 -24.957031 13.445312 -25.109375 13.25 -25.109375 C 13.15625 -25.109375 13.054688 -25.070312 12.953125 -25 C 12.984375 -25 13.03125 -25.003906 13.09375 -25.015625 C 13.164062 -25.035156 13.257812 -25.046875 13.375 -25.046875 C 13.488281 -25.046875 13.71875 -25.113281 14.0625 -25.25 C 14.894531 -25.582031 15.78125 -26.253906 16.71875 -27.265625 L 16.71875 -27.3125 C 18.988281 -29.550781 21.113281 -31.910156 23.09375 -34.390625 C 25 -36.929688 26.65625 -39.628906 28.0625 -42.484375 C 28.195312 -42.710938 28.429688 -42.828125 28.765625 -42.828125 C 29.171875 -42.828125 29.640625 -42.675781 30.171875 -42.375 C 31.078125 -41.875 31.710938 -41.253906 32.078125 -40.515625 C 32.242188 -40.242188 32.328125 -39.960938 32.328125 -39.671875 C 32.328125 -39.429688 32.28125 -39.195312 32.1875 -38.96875 C 29.675781 -33.90625 26.207031 -29.164062 21.78125 -24.75 C 21.6875 -24.613281 21.570312 -24.5 21.4375 -24.40625 C 20.300781 -23 18.910156 -21.925781 17.265625 -21.1875 C 16.734375 -21.019531 16.195312 -20.9375 15.65625 -20.9375 Z M 15.65625 -20.9375 "/></g></g><g transform="translate(382.51389, 299.649151)"><g><path d="M 2.5625 -19.625 C 2.0625 -19.625 1.507812 -19.8125 0.90625 -20.1875 C -0.96875 -21.320312 -1.90625 -22.925781 -1.90625 -25 C -1.90625 -25.632812 -1.835938 -26.269531 -1.703125 -26.90625 L 1.359375 -54.21875 C 3.765625 -51.882812 4.96875 -50.695312 4.96875 -50.65625 L 4.921875 -50.515625 C 4.785156 -50.078125 4.515625 -49.859375 4.109375 -49.859375 C 3.941406 -49.859375 3.609375 -49.929688 3.109375 -50.078125 C 2.609375 -50.234375 2.039062 -50.632812 1.40625 -51.28125 C 0.769531 -51.9375 0.453125 -52.566406 0.453125 -53.171875 L 0.453125 -53.328125 C 0.679688 -54.265625 1.285156 -54.78125 2.265625 -54.875 L 2.359375 -54.875 C 3.160156 -54.875 3.9375 -54.503906 4.6875 -53.765625 C 5.445312 -53.035156 5.828125 -52.285156 5.828125 -51.515625 C 5.828125 -51.179688 5.539062 -48.570312 4.96875 -43.6875 L 3.21875 -28.3125 L 2.609375 -22.75 L 2.609375 -22.25 C 2.609375 -21.945312 2.660156 -21.796875 2.765625 -21.796875 C 2.828125 -21.796875 2.859375 -21.828125 2.859375 -21.890625 L 2.8125 -22.09375 C 2.75 -22.320312 2.332031 -22.691406 1.5625 -23.203125 L -0.859375 -23.453125 C -0.285156 -24.285156 0.132812 -25.203125 0.40625 -26.203125 C 0.40625 -26.273438 0.421875 -26.328125 0.453125 -26.359375 C 0.890625 -27.734375 1.289062 -29.109375 1.65625 -30.484375 C 3.03125 -35.535156 4.703125 -40.488281 6.671875 -45.34375 C 8.847656 -50.664062 11.910156 -55.398438 15.859375 -59.546875 C 16.128906 -59.785156 16.429688 -59.90625 16.765625 -59.90625 C 17.035156 -59.90625 17.4375 -59.785156 17.96875 -59.546875 C 18.507812 -59.316406 19.03125 -58.863281 19.53125 -58.1875 C 19.96875 -57.65625 20.1875 -57.140625 20.1875 -56.640625 L 20.1875 -56.390625 C 18.976562 -52.335938 18.054688 -48.21875 17.421875 -44.03125 L 17.421875 -43.984375 C 17.085938 -42.003906 16.921875 -40.296875 16.921875 -38.859375 C 16.921875 -37.992188 16.988281 -37.410156 17.125 -37.109375 L 17.171875 -36.859375 C 17.171875 -36.890625 17.171875 -36.910156 17.171875 -36.921875 C 17.171875 -36.941406 17.140625 -36.96875 17.078125 -37 L 17.171875 -36.90625 C 17.003906 -37.039062 16.851562 -37.191406 16.71875 -37.359375 C 16.445312 -37.660156 16.160156 -37.894531 15.859375 -38.0625 C 16.398438 -37.820312 16.921875 -37.453125 17.421875 -36.953125 C 17.921875 -36.453125 18.238281 -35.882812 18.375 -35.25 C 18.375 -34.539062 18.023438 -34.1875 17.328125 -34.1875 C 16.984375 -34.1875 16.664062 -34.253906 16.375 -34.390625 C 14.332031 -35.359375 13.125 -36.816406 12.75 -38.765625 C 12.519531 -39.796875 12.40625 -40.847656 12.40625 -41.921875 C 12.40625 -42.828125 12.488281 -43.734375 12.65625 -44.640625 C 13.257812 -49.585938 14.28125 -54.441406 15.71875 -59.203125 L 19.984375 -56.03125 C 17.640625 -53.625 15.613281 -50.976562 13.90625 -48.09375 C 11.664062 -44.007812 9.859375 -39.726562 8.484375 -35.25 L 7.578125 -32.6875 C 7.078125 -31.175781 6.625 -29.632812 6.21875 -28.0625 L 5.46875 -25.40625 C 5.070312 -23.425781 4.335938 -21.601562 3.265625 -19.9375 C 3.097656 -19.726562 2.863281 -19.625 2.5625 -19.625 Z M 2.5625 -19.625 "/></g></g><g transform="translate(406.966038, 299.649151)"><g><path d="M 0.6875 -20.6875 C 0.09375 -20.6875 -0.519531 -20.800781 -1.15625 -21.03125 C -3.5 -22.132812 -4.707031 -23.960938 -4.78125 -26.515625 C -4.644531 -28.421875 -4.289062 -30.296875 -3.71875 -32.140625 C -2.175781 -38.054688 0.445312 -43.425781 4.15625 -48.25 C 4.394531 -48.488281 4.679688 -48.609375 5.015625 -48.609375 C 5.316406 -48.609375 5.75 -48.460938 6.3125 -48.171875 C 6.882812 -47.890625 7.4375 -47.394531 7.96875 -46.6875 C 8.3125 -46.21875 8.484375 -45.800781 8.484375 -45.4375 C 8.484375 -45.207031 8.414062 -44.972656 8.28125 -44.734375 C 3.789062 -38.878906 0.976562 -32.300781 -0.15625 -25 L -0.15625 -24.859375 C -0.226562 -24.554688 -0.265625 -24.253906 -0.265625 -23.953125 C -0.265625 -23.847656 -0.253906 -23.742188 -0.234375 -23.640625 C -0.210938 -23.546875 -0.1875 -23.460938 -0.15625 -23.390625 L -0.203125 -23.296875 L -0.203125 -23.34375 C -0.203125 -23.507812 -0.488281 -23.726562 -1.0625 -24 C -1.632812 -24.269531 -1.9375 -24.472656 -1.96875 -24.609375 C -1.96875 -24.640625 -1.941406 -24.660156 -1.890625 -24.671875 C -1.835938 -24.691406 -1.757812 -24.71875 -1.65625 -24.75 C -1.5625 -24.78125 -1.5 -24.796875 -1.46875 -24.796875 C -1.164062 -24.898438 -0.894531 -25.035156 -0.65625 -25.203125 C 0.414062 -26.078125 1.332031 -27.097656 2.09375 -28.265625 C 2.226562 -28.398438 2.347656 -28.550781 2.453125 -28.71875 C 6.265625 -33.675781 8.757812 -39.300781 9.9375 -45.59375 L 9.984375 -45.640625 C 10.253906 -46.804688 10.390625 -47.992188 10.390625 -49.203125 C 10.390625 -50.078125 10.285156 -50.78125 10.078125 -51.3125 L 9.984375 -51.671875 L 10.078125 -51.515625 C 10.210938 -51.273438 10.316406 -51.15625 10.390625 -51.15625 L 9.6875 -51.15625 C 9.445312 -51.125 9.242188 -51.109375 9.078125 -51.109375 C 8.910156 -51.109375 8.796875 -51.09375 8.734375 -51.0625 C 6.816406 -50.53125 4.957031 -49.34375 3.15625 -47.5 C 2.050781 -46.425781 1.144531 -45.203125 0.4375 -43.828125 C 0.238281 -43.429688 0.140625 -43.039062 0.140625 -42.65625 C 0.140625 -42.269531 0.140625 -42.054688 0.140625 -42.015625 C 0.140625 -41.984375 0.140625 -41.953125 0.140625 -41.921875 L 0.1875 -41.875 L 0.25 -41.875 C 0.25 -41.9375 0.179688 -42.003906 0.046875 -42.078125 L -0.15625 -42.171875 L 0.1875 -42.03125 C 1.394531 -41.6875 2.648438 -41.515625 3.953125 -41.515625 L 7.125 -41.515625 C 11.4375 -41.515625 16.441406 -41.816406 22.140625 -42.421875 L 22.28125 -42.421875 C 22.820312 -42.421875 23.375 -42.210938 23.9375 -41.796875 C 24.507812 -41.378906 24.9375 -40.941406 25.21875 -40.484375 C 25.507812 -40.035156 25.65625 -39.628906 25.65625 -39.265625 L 25.65625 -38.8125 C 25.65625 -38.570312 25.367188 -38.40625 24.796875 -38.3125 C 19.535156 -37.738281 14.28125 -37.4375 9.03125 -37.40625 L 7.421875 -37.40625 C 3.335938 -37.40625 0.242188 -38.273438 -1.859375 -40.015625 C -3.535156 -41.421875 -4.375 -43.007812 -4.375 -44.78125 C -4.375 -46.09375 -3.835938 -47.492188 -2.765625 -48.984375 C -1.691406 -50.472656 -0.421875 -51.734375 1.046875 -52.765625 C 2.585938 -54.003906 4.328125 -54.828125 6.265625 -55.234375 L 7.21875 -55.28125 C 9.09375 -55.28125 10.765625 -54.59375 12.234375 -53.21875 C 13.710938 -51.84375 14.550781 -50.238281 14.75 -48.40625 C 14.820312 -47.800781 14.859375 -47.179688 14.859375 -46.546875 C 14.859375 -45.304688 14.722656 -44.050781 14.453125 -42.78125 C 13.710938 -39 12.472656 -35.363281 10.734375 -31.875 C 9.066406 -28.332031 6.875 -25.15625 4.15625 -22.34375 C 3.125 -21.238281 1.96875 -20.6875 0.6875 -20.6875 Z M 0.6875 -20.6875 "/></g></g><g transform="translate(429.962102, 299.649151)"><g><path d="M 4.265625 -29.078125 L 3.46875 -29.125 C 2.289062 -29.425781 1.300781 -30.023438 0.5 -30.921875 C -0.300781 -31.828125 -0.835938 -32.847656 -1.109375 -33.984375 C -1.273438 -34.859375 -1.359375 -35.765625 -1.359375 -36.703125 C -1.359375 -37.703125 -1.273438 -38.738281 -1.109375 -39.8125 C -0.503906 -46.375 1.269531 -52.648438 4.21875 -58.640625 C 4.351562 -58.878906 4.585938 -59 4.921875 -59 C 5.253906 -59 5.722656 -58.832031 6.328125 -58.5 C 7.234375 -57.957031 7.882812 -57.351562 8.28125 -56.6875 C 8.414062 -56.414062 8.484375 -56.144531 8.484375 -55.875 C 8.484375 -55.613281 8.4375 -55.363281 8.34375 -55.125 C 5.625 -49.46875 3.984375 -43.546875 3.421875 -37.359375 C 3.253906 -35.878906 3.171875 -34.890625 3.171875 -34.390625 C 3.171875 -33.691406 3.21875 -32.988281 3.3125 -32.28125 C 3.3125 -32.25 3.328125 -32.195312 3.359375 -32.125 C 3.398438 -32.0625 3.421875 -32 3.421875 -31.9375 L 3.421875 -31.984375 C 2.179688 -32.484375 1.5625 -32.816406 1.5625 -32.984375 C 1.5625 -33.054688 1.660156 -33.109375 1.859375 -33.140625 L 1.90625 -33.140625 L 2.359375 -33.34375 C 3.066406 -33.769531 3.65625 -34.335938 4.125 -35.046875 C 5.351562 -36.421875 6.488281 -37.859375 7.53125 -39.359375 C 10.875 -44.347656 13.9375 -49.535156 16.71875 -54.921875 L 19.328125 -59.703125 C 19.460938 -59.929688 19.695312 -60.046875 20.03125 -60.046875 C 20.40625 -60.046875 20.804688 -59.945312 21.234375 -59.75 C 22.003906 -59.3125 22.660156 -58.757812 23.203125 -58.09375 C 23.535156 -57.6875 23.703125 -57.269531 23.703125 -56.84375 L 23.65625 -56.53125 C 21.207031 -49.207031 19.984375 -45.457031 19.984375 -45.28125 C 18.609375 -41.5 17.921875 -38.351562 17.921875 -35.84375 C 17.921875 -35.507812 17.953125 -35.148438 18.015625 -34.765625 C 18.085938 -34.378906 18.125 -33.972656 18.125 -33.546875 C 18.125 -33.441406 18.140625 -33.378906 18.171875 -33.359375 C 18.210938 -33.347656 18.234375 -33.332031 18.234375 -33.3125 C 18.234375 -33.289062 18.210938 -33.316406 18.171875 -33.390625 C 17.867188 -33.785156 17.597656 -34.066406 17.359375 -34.234375 C 17.128906 -34.410156 16.96875 -34.5 16.875 -34.5 L 16.828125 -34.5 L 16.921875 -34.5 C 16.984375 -34.457031 17.117188 -34.4375 17.328125 -34.4375 C 17.660156 -34.4375 17.992188 -34.488281 18.328125 -34.59375 C 19.703125 -34.925781 20.988281 -35.476562 22.1875 -36.25 C 24.664062 -37.894531 26.675781 -39.972656 28.21875 -42.484375 C 28.382812 -42.710938 28.617188 -42.828125 28.921875 -42.828125 C 29.328125 -42.828125 29.796875 -42.675781 30.328125 -42.375 C 31.203125 -41.84375 31.851562 -41.222656 32.28125 -40.515625 C 32.445312 -40.242188 32.53125 -39.960938 32.53125 -39.671875 C 32.53125 -39.429688 32.460938 -39.195312 32.328125 -38.96875 C 30.691406 -36.351562 28.585938 -34.175781 26.015625 -32.4375 C 24.867188 -31.695312 23.613281 -31.109375 22.25 -30.671875 C 21.507812 -30.441406 20.769531 -30.328125 20.03125 -30.328125 C 19.394531 -30.328125 18.773438 -30.410156 18.171875 -30.578125 C 16.128906 -31.210938 14.707031 -32.519531 13.90625 -34.5 C 13.601562 -35.601562 13.453125 -36.738281 13.453125 -37.90625 L 13.5 -39.265625 C 13.800781 -42.515625 14.523438 -45.660156 15.671875 -48.703125 C 15.734375 -48.835938 15.78125 -48.988281 15.8125 -49.15625 C 16.820312 -52.101562 17.925781 -55.5 19.125 -59.34375 L 22.546875 -56.890625 L 23.453125 -56.1875 L 21.34375 -52.3125 C 19.53125 -49.03125 17.707031 -45.769531 15.875 -42.53125 C 13.757812 -38.78125 11.347656 -35.25 8.640625 -31.9375 C 7.097656 -30.03125 5.640625 -29.078125 4.265625 -29.078125 Z M 4.265625 -29.078125 "/></g></g><g transform="translate(459.937322, 299.649151)"><g><path d="M 16.515625 -23.796875 C 15.941406 -23.796875 15.359375 -23.914062 14.765625 -24.15625 C 13.390625 -24.820312 12.40625 -25.796875 11.8125 -27.078125 C 11.226562 -28.367188 10.90625 -29.753906 10.84375 -31.234375 L 10.84375 -32.4375 C 10.84375 -34.445312 11.0625 -36.539062 11.5 -38.71875 C 11.96875 -41.09375 12.6875 -43.921875 13.65625 -47.203125 C 14.695312 -51.148438 15.785156 -55.066406 16.921875 -58.953125 L 18.125 -63.265625 L 22.390625 -60.09375 C 19.046875 -57.050781 16.203125 -53.570312 13.859375 -49.65625 C 11.742188 -46.175781 9.816406 -42.578125 8.078125 -38.859375 L 7.28125 -37.25 C 6.207031 -34.945312 5.085938 -32.691406 3.921875 -30.484375 L 3.609375 -29.921875 C 3.304688 -29.179688 2.90625 -28.546875 2.40625 -28.015625 C 1.875 -27.617188 1.320312 -27.421875 0.75 -27.421875 C 0.144531 -27.421875 -0.457031 -27.632812 -1.0625 -28.0625 C -1.894531 -28.5625 -2.507812 -29.25 -2.90625 -30.125 C -3.007812 -30.425781 -3.0625 -30.742188 -3.0625 -31.078125 C -3.0625 -31.273438 -3.046875 -31.445312 -3.015625 -31.59375 C -2.984375 -31.75 -2.96875 -31.878906 -2.96875 -31.984375 C -2.363281 -39.109375 -0.769531 -46.070312 1.8125 -52.875 C 2.007812 -53.300781 2.34375 -53.515625 2.8125 -53.515625 C 3.71875 -53.515625 4.640625 -53 5.578125 -51.96875 C 6.078125 -51.425781 6.328125 -50.90625 6.328125 -50.40625 C 6.328125 -50.269531 6.3125 -50.15625 6.28125 -50.0625 C 3.632812 -43 2.007812 -35.71875 1.40625 -28.21875 L -0.5 -31.125 L -0.296875 -30.984375 C -1.203125 -31.347656 -1.65625 -31.5625 -1.65625 -31.625 C -1.65625 -31.664062 -1.625 -31.71875 -1.5625 -31.78125 C -1.226562 -32.019531 -0.941406 -32.472656 -0.703125 -33.140625 C -0.00390625 -34.347656 1.097656 -36.503906 2.609375 -39.609375 C 2.773438 -40.015625 2.957031 -40.398438 3.15625 -40.765625 C 4.363281 -43.304688 5.617188 -45.816406 6.921875 -48.296875 C 10.273438 -54.753906 14.0625 -59.859375 18.28125 -63.609375 C 18.539062 -63.816406 18.859375 -63.921875 19.234375 -63.921875 C 20.128906 -63.921875 21.046875 -63.367188 21.984375 -62.265625 C 22.421875 -61.722656 22.640625 -61.21875 22.640625 -60.75 C 22.640625 -60.6875 22.222656 -59.148438 21.390625 -56.140625 C 20.253906 -52.253906 19.164062 -48.351562 18.125 -44.4375 C 16.3125 -38.375 15.375 -33.703125 15.3125 -30.421875 C 15.3125 -29.179688 15.425781 -27.960938 15.65625 -26.765625 C 15.757812 -26.660156 15.8125 -26.554688 15.8125 -26.453125 C 15.78125 -26.828125 15.65625 -27.101562 15.4375 -27.28125 C 15.21875 -27.46875 14.984375 -27.59375 14.734375 -27.65625 C 14.484375 -27.726562 14.273438 -27.765625 14.109375 -27.765625 C 13.941406 -27.765625 13.859375 -27.78125 13.859375 -27.8125 C 13.859375 -27.84375 13.992188 -27.910156 14.265625 -28.015625 L 15.015625 -28.265625 C 15.679688 -28.535156 16.398438 -29.054688 17.171875 -29.828125 C 19.140625 -31.867188 20.878906 -34.078125 22.390625 -36.453125 C 24.097656 -39.097656 25.117188 -40.835938 25.453125 -41.671875 C 25.648438 -42.410156 26.050781 -42.78125 26.65625 -42.78125 C 27.53125 -42.78125 28.4375 -42.273438 29.375 -41.265625 C 29.90625 -40.703125 30.171875 -40.148438 30.171875 -39.609375 L 30.125 -39.3125 C 28.550781 -35.632812 26.125 -31.816406 22.84375 -27.859375 C 21.84375 -26.660156 20.722656 -25.640625 19.484375 -24.796875 C 18.546875 -24.128906 17.554688 -23.796875 16.515625 -23.796875 Z M 16.515625 -23.796875 "/></g></g><g transform="translate(487.653103, 299.649151)"><g><path d="M 16.21875 -7.484375 L 15.875 -7.484375 C 15.039062 -7.484375 14.1875 -7.914062 13.3125 -8.78125 C 12.78125 -9.289062 12.460938 -9.84375 12.359375 -10.4375 C 12.117188 -13.925781 12 -17.410156 12 -20.890625 C 12 -24.367188 12.117188 -27.832031 12.359375 -31.28125 C 13.191406 -43.894531 15 -56.378906 17.78125 -68.734375 C 19.789062 -78.503906 22.617188 -88.046875 26.265625 -97.359375 L 30.578125 -94.1875 C 29.109375 -91.25 27.851562 -88.1875 26.8125 -85 C 25.78125 -81.820312 24.828125 -78.625 23.953125 -75.40625 L 22.34375 -69.796875 C 18.9375 -57.171875 15.609375 -47.09375 12.359375 -39.5625 C 9.347656 -32.164062 6.203125 -27.078125 2.921875 -24.296875 L 2.8125 -24.25 C 1.707031 -23.3125 0.769531 -22.828125 0 -22.796875 C -0.695312 -22.796875 -1.363281 -22.96875 -2 -23.3125 C -2.632812 -23.664062 -3.1875 -24.097656 -3.65625 -24.609375 C -4.394531 -25.472656 -4.796875 -26.410156 -4.859375 -27.421875 L -4.90625 -28.265625 C -4.90625 -29.003906 -4.84375 -29.757812 -4.71875 -30.53125 C -4.445312 -32.601562 -3.976562 -34.628906 -3.3125 -36.609375 C -1.9375 -40.648438 0.0703125 -44.328125 2.71875 -47.640625 L 2.765625 -47.75 C 3.398438 -48.550781 4.101562 -49.300781 4.875 -50 C 5.644531 -50.707031 6.566406 -51.09375 7.640625 -51.15625 C 8.878906 -51.15625 10.054688 -50.742188 11.171875 -49.921875 C 12.296875 -49.109375 12.976562 -48.082031 13.21875 -46.84375 L 13.21875 -46.59375 C 13.21875 -46.09375 12.929688 -45.84375 12.359375 -45.84375 L 12.15625 -45.84375 C 11.351562 -45.84375 10.515625 -46.273438 9.640625 -47.140625 C 9.140625 -47.609375 8.84375 -48.160156 8.75 -48.796875 C 9.175781 -48.128906 9.691406 -47.5625 10.296875 -47.09375 L 9.75 -46.953125 C 8.84375 -46.546875 7.671875 -45.335938 6.234375 -43.328125 C 3.421875 -39.609375 1.460938 -35.472656 0.359375 -30.921875 C -0.046875 -29.285156 -0.25 -28.097656 -0.25 -27.359375 C -0.34375 -26.796875 -0.390625 -26.226562 -0.390625 -25.65625 L -0.390625 -25.25 C -0.390625 -25.21875 -0.375 -25.1875 -0.34375 -25.15625 L -0.34375 -25.203125 C -0.34375 -25.234375 -0.375 -25.28125 -0.4375 -25.34375 C -0.507812 -25.414062 -0.597656 -25.519531 -0.703125 -25.65625 L -1.65625 -26.453125 C -1.75 -26.554688 -1.945312 -26.707031 -2.25 -26.90625 L -2.546875 -26.96875 L -2.40625 -27.015625 C -2.332031 -27.015625 -2.113281 -27.148438 -1.75 -27.421875 C -0.84375 -28.117188 -0.00390625 -28.882812 0.765625 -29.71875 C 2.972656 -32.300781 5.195312 -36.1875 7.4375 -41.375 C 9.613281 -46.320312 11.519531 -51.375 13.15625 -56.53125 C 15.363281 -63.632812 17.207031 -69.960938 18.6875 -75.515625 C 19.71875 -79.328125 20.835938 -83.097656 22.046875 -86.828125 C 23.253906 -90.566406 24.726562 -94.191406 26.46875 -97.703125 C 26.601562 -97.941406 26.835938 -98.0625 27.171875 -98.0625 L 27.46875 -98.0625 C 27.769531 -98.03125 28.320312 -97.757812 29.125 -97.25 C 29.863281 -96.75 30.367188 -96.179688 30.640625 -95.546875 C 30.765625 -95.316406 30.828125 -95.097656 30.828125 -94.890625 C 30.828125 -94.753906 30.8125 -94.640625 30.78125 -94.546875 C 28.875 -89.859375 27.234375 -85.070312 25.859375 -80.1875 C 22.617188 -68.832031 20.191406 -57.300781 18.578125 -45.59375 C 17.210938 -35.914062 16.53125 -27.046875 16.53125 -18.984375 C 16.53125 -15.492188 16.644531 -12.007812 16.875 -8.53125 C 16.875 -7.925781 16.65625 -7.578125 16.21875 -7.484375 Z M 16.21875 -7.484375 "/></g></g></g></svg>